<?xml version="1.0" standalone="no"?>
<!DOCTYPE svg PUBLIC "-//W3C//DTD SVG 20010904//EN"
 "http://www.w3.org/TR/2001/REC-SVG-20010904/DTD/svg10.dtd">
<svg version="1.0" xmlns="http://www.w3.org/2000/svg"
 width="512.000000pt" height="512.000000pt" viewBox="0 0 512.000000 512.000000"
 preserveAspectRatio="xMidYMid meet">
<metadata>
Created by potrace 1.11, written by Peter Selinger 2001-2013
</metadata>
<g transform="translate(0.000000,512.000000) scale(0.100000,-0.100000)"
fill="#000000" stroke="none">
<path d="M0 2558 l0 -2558 1406 0 c1124 0 1404 3 1397 12 -6 7 -212 351 -458
763 -246 413 -455 761 -464 775 -8 14 -21 34 -27 45 -6 11 -133 224 -282 474
-150 249 -272 457 -272 462 0 5 57 104 127 221 70 117 133 222 139 233 6 11
59 100 117 197 59 98 115 191 125 208 33 57 474 795 490 820 9 14 22 34 28 45
15 28 383 645 402 675 57 88 109 180 104 181 -4 1 -643 2 -1419 3 l-1413 1 0
-2557z"/>
<path d="M3775 4916 c-66 -109 -132 -220 -146 -245 -14 -25 -42 -72 -62 -103
-21 -31 -37 -59 -37 -62 0 -3 -22 -40 -49 -83 -27 -43 -189 -314 -361 -603
-171 -289 -320 -536 -329 -550 -10 -14 -41 -65 -70 -115 -54 -93 -59 -101
-101 -170 -13 -22 -30 -49 -36 -60 -6 -11 -46 -78 -89 -150 -43 -71 -93 -156
-111 -188 l-33 -58 106 -177 c59 -97 111 -186 117 -197 6 -11 19 -31 27 -45
20 -31 628 -1047 643 -1075 6 -11 119 -200 251 -420 132 -220 245 -408 250
-417 6 -10 34 -58 63 -108 l53 -90 630 0 629 0 -2 2557 -3 2558 -610 0 -610 0
-120 -199z"/>
</g>
</svg>
